<?xml version="1.0" encoding="UTF-8"?>
<svg width="448px" height="447px" viewBox="0 0 448 447" version="1.1" xmlns="http://www.w3.org/2000/svg" xmlns:xlink="http://www.w3.org/1999/xlink">
    <title>flag</title>
    <g id="flag" stroke="none" stroke-width="1" fill="none" fill-rule="evenodd">
        <g id="2361504_flag_gabon_icon" transform="translate(0, 65)" fill-rule="nonzero">
            <polygon id="rect6883" fill="#FFFFFF" points="0 107 0 213 448 213 448 107"></polygon>
            <path d="M0,212 L0,249.749135 L0,299.912653 C0,304.29659 2.17512088,308.306389 5.80445464,311.430562 C6.06369328,311.653717 6.33008625,311.872163 6.60389904,312.086091 C11.2587355,315.72316 17.981659,318 25.4815463,318 L422.518454,318 C430.459166,318 437.529258,315.447355 442.195543,311.430562 C445.824882,308.306389 448,304.29659 448,299.912653 L448,249.749135 L448,212 L0,212 Z" id="rect4795" fill="#D9D9D9"></path>
            <path d="M25.4815463,0 C11.3647134,0 0,8.06691886 0,18.0873477 L0,68.2508679 L0,106 L448,106 L448,68.2508679 L448,18.0873477 C448,8.06691886 436.635279,0 422.518454,0 L25.4815463,0 Z" id="rect4791" fill="#D9D9D9"></path>
        </g>
        <g id="default" transform="translate(161, 120)" fill="#4D4D4D" fill-rule="nonzero">
            <path d="M63.5021437,168.186158 C52.8176969,168.186158 44.126937,176.891143 44.126937,187.593079 C44.126937,198.295015 52.8176969,207 63.5021437,207 C74.1823031,207 82.873063,198.295015 82.873063,187.593079 C82.873063,176.891143 74.1823031,168.186158 63.5021437,168.186158 L63.5021437,168.186158 Z M63.5021437,0 C28.4861416,0 0,28.532769 0,63.6017925 L0,64.2244974 C0,74.5828717 8.41207252,83.0087135 18.757807,83.0087135 L19.9926066,83.0087135 C30.3340535,83.0087135 38.7504136,74.5785772 38.7504136,64.2244974 L38.7504136,63.6017925 C38.7504136,49.9323458 49.8507478,38.8095475 63.5021437,38.8095475 C77.1492522,38.8095475 88.2495864,49.9323458 88.2495864,63.6017925 C88.2495864,73.2988112 82.5557881,82.1626937 73.7406907,86.1866559 C55.4716586,94.5180183 44.126937,112.18566 44.126937,132.292587 L44.126937,132.915292 C44.126937,143.273667 52.5390095,151.699508 62.8804564,151.699508 L64.1195436,151.699508 C74.4609905,151.699508 82.873063,143.269372 82.873063,132.915292 L82.873063,132.292587 C82.873063,127.375366 85.3340873,123.544657 89.801661,121.509056 C112.396779,111.197921 127,88.4713388 127,63.606087 C127,28.532769 98.5138584,0 63.5021437,0 L63.5021437,0 Z" id="Shape"></path>
        </g>
    </g>
</svg>