<?xml version="1.0" encoding="UTF-8"?>
<svg width="448px" height="447px" viewBox="0 0 448 447" version="1.1" xmlns="http://www.w3.org/2000/svg" xmlns:xlink="http://www.w3.org/1999/xlink">
    <title>browser</title>
    <defs>
        <linearGradient x1="-5.58831797e-05%" y1="50%" x2="100.000056%" y2="50%" id="linearGradient-1">
            <stop stop-color="#00C0FF" offset="0%"></stop>
            <stop stop-color="#5558FF" offset="100%"></stop>
        </linearGradient>
        <linearGradient x1="-5.58831797e-05%" y1="50%" x2="100.000056%" y2="50%" id="linearGradient-2">
            <stop stop-color="#D9D9D9" offset="0%"></stop>
            <stop stop-color="#D9D9D9" offset="100%"></stop>
        </linearGradient>
    </defs>
    <g id="browser" stroke="none" stroke-width="1" fill="none" fill-rule="evenodd">
        <g id="default" fill="url(#linearGradient-2)" fill-rule="nonzero">
            <path d="M293.75975,10.72 C346.407008,28.1139086 390.786995,64.3186345 418.39975,112.4 L357.99975,112.4 C343.67975,69.04 321.19975,33.44 293.75975,10.72 L293.75975,10.72 Z M231.99975,0 L231.99975,112.4 L341.35975,112.4 C319.27975,48.64 278.79975,4.48 231.99975,0 L231.99975,0 Z M359.27975,223.52 C359.383238,191.377162 355.076415,159.372086 346.47975,128.4 L231.99975,128.4 L231.99975,318.64 L346.39975,318.64 C355.063011,287.679834 359.397506,255.669185 359.27975,223.52 Z M426.71975,128.4 L362.87975,128.4 C379.412841,190.735709 379.412841,256.304291 362.87975,318.64 L426.71975,318.64 C455.092749,258.400396 455.092749,188.639604 426.71975,128.4 L426.71975,128.4 Z M293.67975,436.32 C346.364107,418.956637 390.779226,382.746492 418.39975,334.64 L357.99975,334.64 C343.67975,378.08 321.11975,413.68 293.67975,436.32 L293.67975,436.32 Z M341.35975,334.64 L231.99975,334.64 L231.99975,447.04 C278.79975,442.48 319.27975,398.4 341.35975,334.64 Z M89.9997496,334.64 L29.5997496,334.64 C57.220273,382.746492 101.635392,418.956637 154.31975,436.32 C126.87975,413.68 104.31975,378.08 89.9997496,334.64 L89.9997496,334.64 Z M215.99975,447.04 L215.99975,334.64 L106.63975,334.64 C128.71975,398.4 169.19975,442.48 215.99975,447.04 Z M72.7197496,223.52 C72.6458812,191.405598 76.815291,159.42219 85.1197496,128.4 L21.2797496,128.4 C-7.09324988,188.639604 -7.09324988,258.400396 21.2797496,318.64 L85.1197496,318.64 C76.8153232,287.617804 72.6459139,255.6344 72.7197496,223.52 L72.7197496,223.52 Z M154.23975,10.72 C101.592491,28.1139086 57.2125042,64.3186345 29.5997496,112.4 L89.9997496,112.4 C104.31975,69.04 126.79975,33.44 154.23975,10.72 L154.23975,10.72 Z M106.63975,112.4 L215.99975,112.4 L215.99975,0 C169.19975,4.48 128.71975,48.64 106.63975,112.4 L106.63975,112.4 Z M88.7197496,223.52 C88.6019937,255.669185 92.9364887,287.679834 101.59975,318.64 L215.99975,318.64 L215.99975,128.4 L101.51975,128.4 C92.9230845,159.372086 88.6162617,191.377162 88.7197496,223.52 L88.7197496,223.52 Z" id="Shape"></path>
        </g>
        <g id="default" transform="translate(161, 120)" fill="#4D4D4D" fill-rule="nonzero">
            <path d="M63.5021437,168.186158 C52.8176969,168.186158 44.126937,176.891143 44.126937,187.593079 C44.126937,198.295015 52.8176969,207 63.5021437,207 C74.1823031,207 82.873063,198.295015 82.873063,187.593079 C82.873063,176.891143 74.1823031,168.186158 63.5021437,168.186158 L63.5021437,168.186158 Z M63.5021437,0 C28.4861416,0 0,28.532769 0,63.6017925 L0,64.2244974 C0,74.5828717 8.41207252,83.0087135 18.757807,83.0087135 L19.9926066,83.0087135 C30.3340535,83.0087135 38.7504136,74.5785772 38.7504136,64.2244974 L38.7504136,63.6017925 C38.7504136,49.9323458 49.8507478,38.8095475 63.5021437,38.8095475 C77.1492522,38.8095475 88.2495864,49.9323458 88.2495864,63.6017925 C88.2495864,73.2988112 82.5557881,82.1626937 73.7406907,86.1866559 C55.4716586,94.5180183 44.126937,112.18566 44.126937,132.292587 L44.126937,132.915292 C44.126937,143.273667 52.5390095,151.699508 62.8804564,151.699508 L64.1195436,151.699508 C74.4609905,151.699508 82.873063,143.269372 82.873063,132.915292 L82.873063,132.292587 C82.873063,127.375366 85.3340873,123.544657 89.801661,121.509056 C112.396779,111.197921 127,88.4713388 127,63.606087 C127,28.532769 98.5138584,0 63.5021437,0 L63.5021437,0 Z" id="Shape"></path>
        </g>
    </g>
</svg>