<?xml version="1.0" encoding="UTF-8"?>
<svg width="448px" height="447px" viewBox="0 0 448 447" version="1.1" xmlns="http://www.w3.org/2000/svg" xmlns:xlink="http://www.w3.org/1999/xlink">
    <title>device</title>
    <g id="device" stroke="none" stroke-width="1" fill="none" fill-rule="evenodd">
        <g id="2205195_mobile_phone_screen_smart_icon" transform="translate(85, 0)" fill="#D9D9D9" fill-rule="nonzero">
            <path d="M55.6,447 L222.4,447 C253.119,447 278,421.995938 278,391.125 L278,55.875 C278,25.0040625 253.119,0 222.4,0 L55.6,0 C24.881,0 0,25.0040625 0,55.875 L0,391.125 C0,421.995938 24.881,447 55.6,447 Z M27.8,55.875 L250.2,55.875 L250.2,391.125 L27.8,391.125 L27.8,55.875 Z" id="Shape"></path>
        </g>
        <g id="default" transform="translate(161, 120)" fill="#4D4D4D" fill-rule="nonzero">
            <path d="M63.5021437,168.186158 C52.8176969,168.186158 44.126937,176.891143 44.126937,187.593079 C44.126937,198.295015 52.8176969,207 63.5021437,207 C74.1823031,207 82.873063,198.295015 82.873063,187.593079 C82.873063,176.891143 74.1823031,168.186158 63.5021437,168.186158 L63.5021437,168.186158 Z M63.5021437,0 C28.4861416,0 0,28.532769 0,63.6017925 L0,64.2244974 C0,74.5828717 8.41207252,83.0087135 18.757807,83.0087135 L19.9926066,83.0087135 C30.3340535,83.0087135 38.7504136,74.5785772 38.7504136,64.2244974 L38.7504136,63.6017925 C38.7504136,49.9323458 49.8507478,38.8095475 63.5021437,38.8095475 C77.1492522,38.8095475 88.2495864,49.9323458 88.2495864,63.6017925 C88.2495864,73.2988112 82.5557881,82.1626937 73.7406907,86.1866559 C55.4716586,94.5180183 44.126937,112.18566 44.126937,132.292587 L44.126937,132.915292 C44.126937,143.273667 52.5390095,151.699508 62.8804564,151.699508 L64.1195436,151.699508 C74.4609905,151.699508 82.873063,143.269372 82.873063,132.915292 L82.873063,132.292587 C82.873063,127.375366 85.3340873,123.544657 89.801661,121.509056 C112.396779,111.197921 127,88.4713388 127,63.606087 C127,28.532769 98.5138584,0 63.5021437,0 L63.5021437,0 Z" id="Shape"></path>
        </g>
    </g>
</svg>